<?xml version="1.0" encoding="utf-8"?>
<!-- Generator: Adobe Illustrator 16.0.0, SVG Export Plug-In . SVG Version: 6.00 Build 0)  -->
<!DOCTYPE svg PUBLIC "-//W3C//DTD SVG 1.1//EN" "http://www.w3.org/Graphics/SVG/1.1/DTD/svg11.dtd">
<svg version="1.1" xmlns="http://www.w3.org/2000/svg" xmlns:xlink="http://www.w3.org/1999/xlink" x="0px" y="0px"
	 width="240.02px" height="75.389px" viewBox="0 0 240.02 75.389" enable-background="new 0 0 240.02 75.389" xml:space="preserve">
<g id="guides">
</g>
<g id="logo">
	<g>
		<g>
			<path fill="#7D2345" d="M116.234,0H10.039C4.494,0,0,4.495,0,10.038v55.312c0,5.544,4.494,10.037,10.039,10.037h106.195V0z"/>
			<path fill="#6F6C67" d="M116.234,75.388h113.749c5.543,0,10.037-4.493,10.037-10.037V10.038C240.021,4.495,235.526,0,229.983,0
				H116.234V75.388z"/>
			<g>
				<g>
					<path fill="#D2B569" d="M6.693,19.817c0,0,15.818-6.129,26.178-6.129c10.358,0,24.744,6.129,24.744,6.129v43.188
						c0,0-14.386-6.128-24.744-6.128c-10.359,0-26.178,6.128-26.178,6.128V19.817z"/>
					<path fill="#6F6C67" d="M6.693,62.778c0,0,15.818-6.128,26.178-6.128c10.358,0,24.744,6.128,24.744,6.128v6.435
						c0,0-14.386-6.128-24.744-6.128c-10.359,0-26.178,6.128-26.178,6.128V62.778z"/>
					<path fill="#6F6C67" d="M58.62,62.778c0,0,15.816-6.128,26.176-6.128s24.745,6.128,24.745,6.128v6.435
						c0,0-14.386-6.128-24.745-6.128S58.62,69.213,58.62,69.213V62.778z"/>
					<path fill="#D2B569" d="M58.62,19.817c0,0,15.816-6.129,26.176-6.129s24.745,6.129,24.745,6.129v43.188
						c0,0-14.386-6.128-24.745-6.128S58.62,63.005,58.62,63.005V19.817z"/>
					<path fill="#FFEF9B" d="M58.62,19.794c0,0,11.835-14.774,22.194-14.774s24.744,6.128,24.744,6.128v43.188
						c0,0-14.385-6.127-24.744-6.127S58.62,62.982,58.62,62.982V19.794z"/>
					<path fill="#FFEF9B" d="M57.615,19.794c0,0-11.835-14.774-22.194-14.774s-24.745,6.128-24.745,6.128v43.188
						c0,0,14.386-6.127,24.745-6.127s22.194,14.774,22.194,14.774V19.794z"/>
				</g>
			</g>
		</g>
		<path fill-rule="evenodd" clip-rule="evenodd" fill="#FFEE90" d="M135.844,8.555c1.01,0.157,2.031,0.263,3.027,0.479
			c2.218,0.483,4.223,1.463,6.12,2.781c-0.767,1.27-1.526,2.528-2.27,3.764c-0.87-0.494-1.688-1.021-2.557-1.439
			c-1.857-0.895-3.813-1.41-5.896-1.307c-0.848,0.041-1.678,0.178-2.429,0.604c-0.212,0.121-0.418,0.268-0.586,0.442
			c-0.579,0.603-0.44,1.491,0.339,1.776c0.647,0.236,1.35,0.387,2.037,0.441c1.356,0.106,2.721,0.087,4.079,0.18
			c1.904,0.129,3.755,0.496,5.387,1.566c1.951,1.279,2.746,3.153,2.649,5.422c-0.12,2.774-1.751,4.508-4.096,5.686
			c-1.837,0.922-3.82,1.093-5.837,1.014c-3.633-0.141-6.973-1.215-10.028-3.178c-0.174-0.111-0.352-0.218-0.527-0.326
			c0-0.026,0-0.053,0-0.078c0.067-0.092,0.144-0.176,0.2-0.273c0.625-1.076,1.246-2.152,1.87-3.229
			c0.057-0.096,0.124-0.185,0.197-0.293c0.144,0.099,0.262,0.176,0.377,0.258c1.438,1.024,3.013,1.768,4.706,2.259
			c1.89,0.546,3.8,0.812,5.752,0.353c0.742-0.176,1.411-0.499,1.992-1.002c0.977-0.848,1.126-2.665-0.438-3.383
			c-1.097-0.504-2.262-0.613-3.443-0.68c-1.642-0.094-3.287-0.156-4.918-0.344c-1.293-0.147-2.538-0.549-3.564-1.413
			c-1.896-1.595-2.214-4.901-0.68-7.019c0.979-1.352,2.348-2.145,3.921-2.571c0.87-0.235,1.777-0.331,2.669-0.49
			C134.547,8.555,135.195,8.555,135.844,8.555z"/>
		<path fill-rule="evenodd" clip-rule="evenodd" fill="#FFEE90" d="M179.699,9.065c-0.438,1.303-0.85,2.529-1.261,3.754
			c-1.613,4.799-3.226,9.598-4.838,14.396c-0.21,0.625-0.429,1.249-0.625,1.878c-0.065,0.209-0.167,0.287-0.386,0.285
			c-0.883-0.01-1.765-0.014-2.646,0.001c-0.253,0.005-0.363-0.093-0.443-0.323c-1.354-3.943-2.715-7.884-4.074-11.824
			c-0.055-0.158-0.114-0.314-0.202-0.557c-0.159,0.441-0.295,0.809-0.423,1.18c-1.281,3.693-2.564,7.386-3.833,11.085
			c-0.116,0.339-0.271,0.458-0.633,0.444c-0.804-0.03-1.608-0.02-2.412-0.005c-0.249,0.005-0.358-0.08-0.439-0.319
			c-2.196-6.514-4.401-13.025-6.604-19.536c-0.043-0.132-0.074-0.267-0.126-0.458c0.26,0,0.476,0,0.692,0
			c1.153,0,2.31,0.013,3.464-0.008c0.313-0.006,0.448,0.096,0.546,0.394c1.216,3.687,2.444,7.368,3.672,11.051
			c0.044,0.133,0.1,0.264,0.181,0.479c0.236-0.673,0.449-1.27,0.655-1.869c1.105-3.221,2.213-6.439,3.307-9.664
			c0.101-0.297,0.237-0.398,0.553-0.391c0.92,0.023,1.842,0.021,2.762,0.001c0.307-0.006,0.448,0.08,0.552,0.385
			c1.271,3.739,2.558,7.472,3.843,11.207c0.031,0.096,0.075,0.188,0.144,0.351c0.062-0.152,0.105-0.248,0.139-0.346
			c1.249-3.733,2.501-7.467,3.737-11.204c0.101-0.302,0.233-0.397,0.546-0.394c1.232,0.019,2.465,0.008,3.697,0.008
			C179.369,9.065,179.496,9.065,179.699,9.065z"/>
		<path fill-rule="evenodd" clip-rule="evenodd" fill="#FFEE90" d="M214.217,21.2c0,2.733,0,5.414,0,8.135c-1.523,0-3.016,0-4.534,0
			c0-6.744,0-13.48,0-20.27c0.173,0,0.324,0,0.476,0c4.669,0,9.338-0.002,14.007,0.002c0.99,0.001,1.97,0.111,2.907,0.443
			c2.196,0.776,3.514,2.285,3.857,4.624c0.365,2.493-0.728,4.891-2.853,6.146c-1.1,0.65-2.304,0.917-3.569,0.918
			c-3.256,0.005-6.511,0.002-9.767,0.002C214.577,21.2,214.413,21.2,214.217,21.2z M214.236,16.849
			c0.121,0.011,0.221,0.027,0.321,0.027c3.125,0,6.252,0.01,9.377-0.009c0.459-0.003,0.935-0.076,1.373-0.214
			c0.756-0.237,1.097-0.805,1.067-1.612c-0.031-0.8-0.426-1.312-1.209-1.509c-0.297-0.075-0.612-0.11-0.921-0.111
			c-3.19-0.008-6.382-0.005-9.572-0.005c-0.14,0-0.28,0-0.437,0C214.236,14.585,214.236,15.706,214.236,16.849z"/>
		<path fill-rule="evenodd" clip-rule="evenodd" fill="#FFEE90" d="M204.469,29.374c-0.407,0-0.742,0-1.076,0
			c-1.168,0-2.335-0.008-3.502,0.006c-0.257,0.002-0.394-0.08-0.509-0.309c-0.692-1.377-1.408-2.742-2.1-4.119
			c-0.12-0.24-0.255-0.334-0.531-0.334c-2.724,0.012-5.447,0.011-8.169,0.002c-0.266,0-0.414,0.07-0.537,0.321
			c-0.685,1.382-1.387,2.753-2.1,4.118c-0.067,0.129-0.254,0.273-0.389,0.275c-1.426,0.028-2.852,0.029-4.276,0.037
			c-0.088,0-0.177-0.018-0.32-0.033c0.074-0.166,0.132-0.304,0.2-0.438c3.307-6.511,6.614-13.021,9.917-19.535
			c0.106-0.209,0.225-0.311,0.472-0.306c0.739,0.015,1.479,0.013,2.218,0.001c0.228-0.004,0.345,0.082,0.445,0.281
			c2.282,4.461,4.571,8.918,6.858,13.377c1.074,2.097,2.148,4.195,3.223,6.291C204.339,29.101,204.381,29.193,204.469,29.374z
			 M190.326,20.523c1.591,0,3.113,0,4.683,0c-0.775-1.522-1.531-3.007-2.326-4.569C191.883,17.505,191.116,18.993,190.326,20.523z"
			/>
		<g>
			<path fill-rule="evenodd" clip-rule="evenodd" fill="#FFEE90" d="M181.111,52.689c0.659,0.101,1.329,0.161,1.978,0.312
				c2.431,0.566,4.4,1.827,5.676,4.014c1.615,2.77,1.534,7.277-1.941,10.055c-1.496,1.195-3.2,1.855-5.092,2.049
				c-1.901,0.193-3.778,0.076-5.564-0.662c-2.385-0.988-4.162-2.611-4.935-5.131c-1.186-3.867,0.51-7.707,4.149-9.545
				c1.183-0.598,2.439-0.924,3.757-1.033c0.139-0.012,0.275-0.039,0.412-0.058C180.072,52.689,180.592,52.689,181.111,52.689z
				 M180.301,55.988c-0.428,0.038-0.857,0.054-1.28,0.119c-1.589,0.245-2.918,0.95-3.852,2.288
				c-1.229,1.762-1.185,5.119,1.817,6.711c1.357,0.72,2.815,0.839,4.311,0.689c1.24-0.124,2.366-0.543,3.323-1.367
				c2.131-1.836,2.145-5.081,0.031-6.937C183.405,56.397,181.922,56.011,180.301,55.988z"/>
			<path fill-rule="evenodd" clip-rule="evenodd" fill="#FFEE90" d="M157.542,52.689c0.756,0.122,1.529,0.185,2.269,0.376
				c2.482,0.645,4.46,2,5.629,4.336c1.431,2.857,1.18,7.158-2.347,9.827c-1.746,1.321-3.73,1.897-5.893,1.96
				c-1.728,0.049-3.414-0.164-4.988-0.916c-2.473-1.182-4.177-3.025-4.72-5.776c-0.707-3.583,0.99-6.985,4.271-8.669
				c1.226-0.629,2.526-0.977,3.896-1.084c0.108-0.008,0.215-0.035,0.323-0.054C156.502,52.689,157.022,52.689,157.542,52.689z
				 M156.46,56.012c-0.756-0.003-1.798,0.155-2.763,0.642c-1.719,0.87-2.766,2.216-2.799,4.199c-0.029,1.799,0.745,3.23,2.31,4.09
				c2.377,1.306,4.849,1.314,7.202-0.033c2.971-1.697,3.002-5.792,0.393-7.688C159.594,56.342,158.239,56.013,156.46,56.012z"/>
			<path fill-rule="evenodd" clip-rule="evenodd" fill="#FFEE90" d="M229.869,64.085c-0.094,0.768-0.269,1.511-0.697,2.172
				c-0.944,1.455-2.324,2.285-3.974,2.67c-2.055,0.48-4.106,0.316-6.137-0.191c-1.788-0.445-3.447-1.183-4.998-2.266
				c0.573-0.99,1.144-1.979,1.681-2.907c0.886,0.472,1.721,0.983,2.609,1.378c1.473,0.656,3.025,1.018,4.654,0.935
				c0.92-0.048,1.801-0.24,2.547-0.831c0.365-0.289,0.619-0.646,0.676-1.123c0.083-0.695-0.152-1.179-0.767-1.52
				c-0.623-0.347-1.307-0.494-2.009-0.536c-1.026-0.062-2.056-0.062-3.081-0.132c-1.218-0.084-2.425-0.253-3.531-0.824
				c-1.138-0.589-1.737-1.546-1.903-2.799c-0.308-2.311,0.949-3.912,2.883-4.754c0.793-0.346,1.627-0.531,2.489-0.605
				c0.128-0.012,0.254-0.041,0.382-0.062c0.52,0,1.039,0,1.559,0c0.099,0.018,0.195,0.046,0.294,0.052
				c1.294,0.092,2.542,0.385,3.749,0.855c1.045,0.408,2.018,0.947,2.962,1.606c-0.593,0.982-1.177,1.951-1.758,2.912
				c-0.561-0.334-1.073-0.685-1.623-0.962c-1.716-0.862-3.513-1.368-5.46-1.108c-0.59,0.078-1.156,0.24-1.626,0.628
				c-0.601,0.493-0.484,1.248,0.231,1.541c0.129,0.053,0.264,0.094,0.398,0.125c1.041,0.243,2.1,0.228,3.159,0.246
				c1.362,0.021,2.711,0.157,3.999,0.646c1.59,0.603,2.729,1.632,3.136,3.343c0.071,0.299,0.104,0.607,0.155,0.912
				C229.869,63.685,229.869,63.884,229.869,64.085z"/>
			<path fill-rule="evenodd" clip-rule="evenodd" fill="#FFEE90" d="M126.387,68.712c0-5.2,0-10.373,0-15.568
				c0.059-0.008,0.123-0.028,0.188-0.028c3.229,0.001,6.456-0.007,9.685,0.014c0.935,0.007,1.846,0.19,2.684,0.638
				c1.307,0.698,1.899,1.832,1.97,3.271c0.053,1.057-0.205,2.02-0.876,2.77c0.238,0.271,0.455,0.542,0.695,0.791
				c2.062,2.141,1.747,6.9-2.549,7.909c-0.597,0.14-1.224,0.207-1.838,0.212c-3.208,0.02-6.416,0.01-9.624,0.008
				C126.614,68.728,126.508,68.718,126.387,68.712z M129.901,61.921c0,1.182,0,2.324,0,3.459c0.04,0.013,0.058,0.023,0.076,0.023
				c2.277,0.002,4.553,0.015,6.829-0.004c0.793-0.006,1.323-0.423,1.508-1.09c0.12-0.432,0.12-0.867-0.006-1.3
				c-0.127-0.442-0.398-0.774-0.835-0.907c-0.348-0.104-0.72-0.172-1.083-0.174c-2.066-0.017-4.134-0.008-6.199-0.008
				C130.103,61.921,130.015,61.921,129.901,61.921z M129.895,58.566c0.082,0.006,0.132,0.013,0.181,0.013
				c1.946,0.001,3.894,0.006,5.84-0.005c0.265-0.001,0.538-0.048,0.793-0.124c0.472-0.14,0.655-0.429,0.655-0.945
				c0-0.514-0.185-0.803-0.664-0.939c-0.283-0.08-0.587-0.124-0.881-0.125c-1.868-0.012-3.734-0.007-5.603-0.006
				c-0.104,0-0.21,0.011-0.321,0.017C129.895,57.169,129.895,57.854,129.895,58.566z"/>
			<path fill-rule="evenodd" clip-rule="evenodd" fill="#FFEE90" d="M203.957,58.947c2.438,3.247,4.862,6.479,7.328,9.765
				c-0.165,0.008-0.268,0.016-0.371,0.016c-1.129,0.002-2.259-0.006-3.388,0.008c-0.24,0.002-0.379-0.086-0.517-0.27
				c-1.808-2.402-3.622-4.801-5.436-7.199c-0.047-0.062-0.101-0.122-0.168-0.203c-0.609,0.516-1.193,1.045-1.813,1.527
				c-0.322,0.252-0.442,0.518-0.436,0.93c0.028,1.599,0.012,3.199,0.012,4.797c0,0.119,0,0.238,0,0.384c-1.164,0-2.306,0-3.469,0
				c0-5.183,0-10.366,0-15.567c1.144,0,2.287,0,3.461,0c0,1.857,0,3.709,0,5.623c0.118-0.082,0.191-0.126,0.256-0.18
				c2.113-1.77,4.226-3.543,6.342-5.311c0.086-0.071,0.204-0.146,0.309-0.146c1.549-0.01,3.098-0.007,4.687,0.059
				C208.493,55.097,206.232,57.015,203.957,58.947z"/>
		</g>
		<g>
			<path fill="#FFEE90" d="M194.509,36.721c-3.489,6.556-7.669,9.835-12.541,9.835c-1.385,0-3.94-0.633-7.669-1.896
				c-3.73-1.263-6.406-1.896-8.03-1.896c-1.685,0-3.128,0.422-4.331,1.264c-0.722,0.541-1.836,1.686-3.338,3.428l-1.805-1.172
				c3.729-6.615,7.939-9.925,12.632-9.925c1.624,0,4.24,0.632,7.85,1.895c3.429,1.204,5.864,1.805,7.308,1.805
				c2.946,0,5.653-1.503,8.12-4.511L194.509,36.721z"/>
		</g>
	</g>
</g>
<g id="Landing_Page_content">
	<g id="body">
	</g>
	<g id="footer">
	</g>
	<g id="nav-bar">
	</g>
</g>
<g id="Landing_Page_guides_copy">
	<g id="footer_copy">
	</g>
	<g id="body_copy">
	</g>
	<g id="nav-bar_copy">
	</g>
</g>
</svg>
